#!OML:ASF E:\I on waltz\AllaLogoMonkeySwing\Project 1\Capture day 1\Session 1\Subject1.ASF
:FULLY-SPECIFIED
:DEGREES
697
root 1.21135 17.9655 2.04506 183.325 551.813 538.195
lowerback 11.6717 -3.29365 -4.43245
upperback 1.43741 -4.76403 3.568
thorax -4.34734 -2.2731 6.9763
lowerneck -10.9797 3.96382 3.34358
upperneck 9.85923 5.13662 -2.80693
head 4.9161 2.46225 -1.02702
rclavicle 7.56376e-014 4.77083e-015
rhumerus -46.292 -32.4605 -50.8456
rradius 23.9597
rwrist 4.50617
rhand -6.81692 -37.6003
rfingers 7.12502
rthumb 19.0469 -66.6877
lclavicle 7.56376e-014 4.77083e-015
lhumerus -34.6716 17.4498 73.3516
lradius 41.2387
lwrist 1.4898
lhand -7.36855 -11.704
lfingers 7.12502
lthumb 18.5163 17.4348
rfemur -11.0611 8.69229 16.7885
rtibia 20.7791
rfoot -13.4687 5.01336
rtoes 16.54
lfemur 2.40439 8.01003 -17.1993
ltibia 10.3636
lfoot -14.5097 4.62469
ltoes -24.442
698
root 1.20627 17.9788 2.06373 183.235 552.103 538.069
lowerback 11.5666 -3.28081 -4.2056
upperback 1.46068 -4.71442 3.59522
thorax -4.28821 -2.25515 6.85951
lowerneck -10.889 4.65551 4.20344
upperneck 10.1134 6.09509 -4.03773
head 5.07585 2.88337 -1.46786
rclavicle 4.29375e-014 1.98785e-015
rhumerus -47.8553 -33.8773 -48.9781
rradius 23.0505
rwrist 5.9884
rhand -6.75483 -37.3418
rfingers 7.12502
rthumb 19.1066 -66.4233
lclavicle 4.29375e-014 1.98785e-015
lhumerus -35.104 17.8745 73.8905
lradius 41.0014
lwrist 1.14225
lhand -7.05554 -11.6693
lfingers 7.12502
lthumb 18.8174 17.4405
rfemur -10.5878 8.518 16.9828
rtibia 20.1782
rfoot -13.1953 5.37875
rtoes 16.1611
lfemur 2.83763 7.81359 -17.1085
ltibia 9.97137
lfoot -14.2581 4.95575
ltoes -24.7013
699
root 1.19798 17.9908 2.08359 183.093 552.297 538.174
lowerback 11.4586 -3.25547 -4.18885
upperback 1.47329 -4.67745 3.56355
thorax -4.2246 -2.24009 6.80139
lowerneck -10.8087 5.55885 5.09634
upperneck 10.4782 7.35642 -5.32816
head 5.31246 3.44701 -1.90154
rclavicle -4.36829e-014 9.54166e-015
rhumerus -49.5516 -35.4887 -46.8173
rradius 22.0092
rwrist 7.73507
rhand -6.90175 -37.6157
rfingers 7.12502
rthumb 18.9653 -66.7111
lclavicle -4.36829e-014 9.54166e-015
lhumerus -35.5396 17.9042 74.6219
lradius 40.8817
lwrist 1.15634
lhand -6.8952 -11.5714
lfingers 7.12502
lthumb 18.9716 17.5234
rfemur -10.0897 8.06698 16.8896
rtibia 19.58
rfoot -12.9277 5.79609
rtoes 16.083
lfemur 3.31799 7.52488 -17.2959
ltibia 9.46947
lfoot -14.0162 5.25874
ltoes -24.6525
700
root 1.18194 17.9979 2.10791 182.97 552.395 538.291
lowerback 11.2552 -3.22043 -4.21062
upperback 1.48442 -4.62866 3.5582
thorax -4.10601 -2.22073 6.78404
lowerneck -10.7137 6.79048 6.23281
upperneck 11.0762 9.0871 -6.85986
head 5.70248 4.22671 -2.39493
rclavicle 6.02318e-014 -1.70955e-014
rhumerus -51.4478 -37.175 -44.3687
rradius 20.9972
rwrist 9.48378
rhand -7.13917 -37.894
rfingers 7.12502
rthumb 18.737 -67.0116
lclavicle 6.02318e-014 -1.70955e-014
lhumerus -35.8804 17.7865 75.522
lradius 40.7289
lwrist 1.15232
lhand -6.77038 -11.51
lfingers 7.12502
lthumb 19.0917 17.573
rfemur -9.65783 7.80385 16.8083
rtibia 19.122
rfoot -12.7292 5.94
rtoes 16.1759
lfemur 3.79905 7.29085 -17.4273
ltibia 8.93009
lfoot -13.7924 5.45149
ltoes -24.7411
701
root 1.16207 17.9985 2.13144 182.916 552.493 538.281
lowerback 11.0363 -3.09155 -4.03368
upperback 1.44594 -4.42994 3.55759
thorax -4.06769 -2.12507 6.64207
lowerneck -10.3617 8.05418 6.59926
upperneck 11.3259 10.8428 -7.29078
head 5.88477 5.06934 -2.42024
rclavicle -4.58199e-014 1.39149e-014
rhumerus -53.792 -38.783 -41.6959
rradius 20.2507
rwrist 10.9225
rhand -7.40627 -38.0867
rfingers 7.12502
rthumb 18.48 -67.2289
lclavicle -4.58199e-014 1.39149e-014
lhumerus -36.1316 17.375 76.5465
lradius 40.5806
lwrist 0.961737
lhand -6.43626 -11.531
lfingers 7.12502
lthumb 19.4129 17.52
rfemur -9.37243 7.84924 16.8913
rtibia 18.8428
rfoot -12.6448 5.93567
rtoes 16.2129
lfemur 4.21903 7.23252 -17.3319
ltibia 8.40972
lfoot -13.5332 5.58526
ltoes -25.1376
702
root 1.14365 17.9989 2.15309 182.838 552.618 538.385
lowerback 10.8391 -2.82378 -3.83709
upperback 1.38476 -4.04887 3.46091
thorax -4.09731 -1.93596 6.36757
lowerneck -9.41063 9.30862 7.68291
upperneck 10.9362 12.6649 -8.99675
head 5.91806 5.91488 -2.96741
rclavicle -4.56211e-014 1.43125e-014
rhumerus -56.5568 -40.3569 -38.829
rradius 19.6272
rwrist 12.0811
rhand -7.778 -38.4492
rfingers 7.12502
rthumb 18.1224 -67.625
lclavicle -4.56211e-014 1.43125e-014
lhumerus -36.1565 16.493 77.7333
lradius 40.3378
lwrist 0.699571
lhand -5.98539 -11.593
lfingers 7.12502
lthumb 19.8464 17.4137
rfemur -9.15242 7.85407 16.8199
rtibia 18.6611
rfoot -12.6604 6.11889
rtoes 16.17
lfemur 4.64903 7.25767 -17.3644
ltibia 7.86554
lfoot -13.3245 5.62544
ltoes -25.2388
703
root 1.12544 18.0035 2.1731 182.652 552.651 538.585
lowerback 10.736 -2.49803 -3.65877
upperback 1.38974 -3.59822 3.30676
thorax -4.11693 -1.71424 6.03779
lowerneck -8.22365 10.8532 9.29657
upperneck 10.658 14.9023 -10.9607
head 6.10308 6.98062 -3.62189
rclavicle 1.51076e-014 -2.5842e-014
rhumerus -59.4586 -41.9093 -35.9019
rradius 19.0108
rwrist 12.9845
rhand -8.1838 -38.5608
rfingers 7.12502
rthumb 17.732 -67.7724
lclavicle 1.51076e-014 -2.5842e-014
lhumerus -35.8506 15.3805 79.0395
lradius 39.9228
lwrist 0.354017
lhand -5.41286 -11.8596
lfingers 7.12502
lthumb 20.3967 17.0892
rfemur -8.81727 7.78964 16.654
rtibia 18.4956
rfoot -12.722 6.303
rtoes 16.0484
lfemur 5.16584 7.29933 -17.486
ltibia 7.34526
lfoot -13.2489 5.5009
ltoes -25.1577
704
root 1.10583 18.008 2.18976 182.484 552.583 538.706
lowerback 10.6741 -2.11723 -3.35047
upperback 1.4077 -3.05956 3.177
thorax -4.1564 -1.45059 5.65072
lowerneck -7.13292 12.4174 10.6022
upperneck 10.4927 17.2157 -12.6263
head 6.37942 8.09153 -4.09634
rclavicle 1.03368e-014 -7.55382e-015
rhumerus -62.8172 -43.5298 -32.4839
rradius 18.4498
rwrist 14.0392
rhand -8.34206 -38.2476
rfingers 7.12502
rthumb 17.5797 -67.4728
lclavicle 1.03368e-014 -7.55382e-015
lhumerus -35.3872 14.1945 80.433
lradius 39.4808
lwrist -0.28239
lhand -4.56436 -12.102
lfingers 7.12502
lthumb 21.2119 16.7574
rfemur -8.48156 7.83131 16.6121
rtibia 18.3522
rfoot -12.7596 6.25693
rtoes 15.7987
lfemur 5.59962 7.31885 -17.4986
ltibia 6.97161
lfoot -13.2037 5.3516
ltoes -25.1892
705
root 1.08385 18.0106 2.20598 182.37 552.365 538.761
lowerback 10.552 -1.7037 -2.95612
upperback 1.40005 -2.46566 3.07401
thorax -4.18917 -1.16082 5.23302
lowerneck -5.72726 13.8219 11.8296
upperneck 10.1429 19.3705 -14.2969
head 6.58947 9.1493 -4.57719
rclavicle -2.48481e-014 9.93923e-015
rhumerus -66.698 -45.1526 -28.4234
rradius 17.8749
rwrist 15.7798
rhand -7.94547 -37.8699
rfingers 7.12502
rthumb 17.9613 -67.0606
lclavicle -2.48481e-014 9.93923e-015
lhumerus -34.9138 12.9377 81.8701
lradius 39.0274
lwrist -1.24699
lhand -3.8485 -12.0872
lfingers 7.12502
lthumb 21.8994 16.6934
rfemur -8.17639 7.85286 16.6543
rtibia 18.2166
rfoot -12.7715 6.04656
rtoes 15.5247
lfemur 5.90771 7.17075 -17.4572
ltibia 6.71805
lfoot -13.1685 5.24318
ltoes -25.1052
706
root 1.06135 18.0121 2.22239 182.23 551.928 538.766
lowerback 10.4411 -1.33596 -2.48224
upperback 1.40779 -1.92524 2.9659
thorax -4.1986 -0.90011 4.77187
lowerneck -4.13044 15.1491 12.8462
upperneck 9.67874 21.4334 -15.6599
head 6.72444 10.1962 -4.94103
rclavicle -2.98177e-014 -4.37326e-015
rhumerus -70.2539 -46.3726 -24.9022
rradius 17.379
rwrist 17.6968
rhand -7.04245 -37.9689
rfingers 7.12502
rthumb 18.83 -67.0775
lclavicle -2.98177e-014 -4.37326e-015
lhumerus -34.4292 11.7891 83.1997
lradius 38.5093
lwrist -2.3899
lhand -3.49614 -12.2704
lfingers 7.12502
lthumb 22.2377 16.4703
rfemur -7.79835 7.72853 16.7504
rtibia 18.0795
rfoot -12.8316 5.77538
rtoes 15.3434
lfemur 6.17019 6.89466 -17.3517
ltibia 6.57012
lfoot -13.1402 5.08854
ltoes -25.1146
707
root 1.04266 18.0112 2.24179 182.041 551.357 538.876
lowerback 10.3098 -0.966381 -2.03582
upperback 1.46805 -1.39015 2.79202
thorax -4.13077 -0.644559 4.25662
lowerneck -2.71822 16.3737 13.587
upperneck 9.33928 23.3374 -16.6027
head 6.86931 11.174 -5.13065
rclavicle -1.78906e-014 -5.1684e-015
rhumerus -73.1334 -47.1406 -22.5414
rradius 17.0493
rwrist 19.1168
rhand -6.10832 -38.1666
rfingers 7.12502
rthumb 19.7282 -67.1854
lclavicle -1.78906e-014 -5.1684e-015
lhumerus -33.8604 10.8424 84.4109
lradius 37.9841
lwrist -3.67961
lhand -3.18739 -12.8139
lfingers 7.12502
lthumb 22.5341 15.8911
rfemur -7.41043 7.47855 16.6947
rtibia 18.0298
rfoot -12.9952 5.51677
rtoes 15.1606
lfemur 6.40645 6.52619 -17.4344
ltibia 6.48349
lfoot -13.0661 4.93961
ltoes -25.4535
708
root 1.0271 18.0081 2.26513 181.724 550.653 539.194
lowerback 10.1975 -0.572567 -1.75
upperback 1.60306 -0.845822 2.55421
thorax -3.98276 -0.384293 3.76578
lowerneck -1.51008 17.474 14.1424
upperneck 9.1901 25.0566 -17.2328
head 7.04478 12.059 -5.19725
rclavicle 4.60187e-014 -1.27222e-014
rhumerus -75.7981 -47.8712 -20.4277
rradius 16.6646
rwrist 20.5532
rhand -5.45423 -38.0502
rfingers 7.12502
rthumb 20.3569 -67.0032
lclavicle 4.60187e-014 -1.27222e-014
lhumerus -33.2267 9.98923 85.5998
lradius 37.5195
lwrist -4.94944
lhand -3.12509 -13.4032
lfingers 7.12502
lthumb 22.5939 15.2945
rfemur -6.92804 7.16684 16.3881
rtibia 18.0509
rfoot -13.229 5.23408
rtoes 14.9194
lfemur 6.69748 6.05738 -17.8506
ltibia 6.4486
lfoot -13.0849 4.83192
ltoes -26.0178
709
root 1.01179 18.0067 2.28449 181.397 549.82 539.498
lowerback 10.1342 -0.214909 -1.52146
upperback 1.76499 -0.355706 2.34879
thorax -3.81941 -0.1495 3.35227
lowerneck -0.781986 18.4276 14.2703
upperneck 9.39896 26.4992 -17.2257
head 7.23599 12.7878 -5.01256
rclavicle 7.15625e-015 -6.36111e-015
rhumerus -77.475 -48.4749 -19.3837
rradius 16.2185
rwrist 21.5412
rhand -5.43039 -38.2361
rfingers 7.12502
rthumb 20.3798 -67.1867
lclavicle 7.15625e-015 -6.36111e-015
lhumerus -32.5967 9.19799 86.7676
lradius 37.1806
lwrist -5.76348
lhand -3.51267 -14.0069
lfingers 7.12502
lthumb 22.2219 14.7357
rfemur -6.43331 6.81518 16.0866
rtibia 18.0878
rfoot -13.5023 4.89923
rtoes 14.5429
lfemur 6.91825 5.5232 -18.2583
ltibia 6.53265
lfoot -13.1468 4.73802
ltoes -26.4409
710
root 0.997254 18.0073 2.2961 181.187 548.955 539.572
lowerback 10.1203 0.122725 -1.12805
upperback 1.87312 0.127996 2.20399
thorax -3.73139 0.0830292 2.91281
lowerneck -0.249538 19.1744 14.1666
upperneck 9.67497 27.5879 -16.8612
head 7.33742 13.3425 -4.74198
rclavicle -1.88845e-014 1.82882e-014
rhumerus -77.4976 -48.7314 -20.4976
rradius 15.9483
rwrist 21.4757
rhand -6.26188 -39.2394
rfingers 7.12502
rthumb 19.5806 -68.2734
lclavicle -1.88845e-014 1.82882e-014
lhumerus -32.0726 8.3276 87.862
lradius 37.0444
lwrist -5.9881
lhand -3.84807 -14.5801
lfingers 7.12502
lthumb 21.8998 14.2005
rfemur -6.07337 6.43578 16.0326
rtibia 18.1675
rfoot -13.7426 4.50572
rtoes 14.2901
lfemur 6.99849 5.07603 -18.347
ltibia 6.6543
lfoot -13.0523 4.56632
ltoes -26.9352
711
root 0.981072 18.0055 2.3009 181.03 548.017 539.453
lowerback 10.2288 0.422785 -0.612878
upperback 1.89298 0.577764 2.09886
thorax -3.79136 0.300211 2.45181
lowerneck 0.325374 19.6952 14.0075
upperneck 9.78384 28.319 -16.4122
head 7.29622 13.738 -4.52249
rclavicle 8.74653e-015 -1.86858e-014
rhumerus -76.969 -48.8591 -22.1925
rradius 15.7319
rwrist 21.9364
rhand -6.52992 -40.3575
rfingers 7.12502
rthumb 19.3229 -69.4175
lclavicle 8.74653e-015 -1.86858e-014
lhumerus -31.7211 7.38656 88.8375
lradius 37.1019
lwrist -5.66907
lhand -3.85271 -14.5333
lfingers 7.12502
lthumb 21.8954 14.2477
rfemur -5.77689 6.11222 16.2242
rtibia 18.2942
rfoot -13.844 3.9602
rtoes 14.5671
lfemur 7.00524 4.8281 -18.1262
ltibia 6.8231
lfoot -13.01 4.22676
ltoes -27.2512
